{"asset":{"version":"2.0","generator":"Blockbench 4.10.4 glTF exporter"},"scenes":[{"nodes":[27],"name":"blockbench_export"}],"scene":0,"nodes":[{"translation":[0,1.09375,0],"name":"cuboid","mesh":0},{"translation":[0,1.84375,0],"name":"tube","mesh":1},{"translation":[-0.0625,0.75,0],"name":"Body","children":[0,1]},{"translation":[0,1.0625,0],"name":"cuboid","mesh":2},{"translation":[-0.0625,0.6875,0],"name":"Hips","children":[3]},{"translation":[0.1875,0.84375,0],"name":"cuboid","mesh":3},{"translation":[0.1875,0.5625,0],"name":"cuboid","mesh":4},{"translation":[0.1875,0.28125,0],"name":"cuboid","mesh":5},{"translation":[0.1875,0,0],"name":"cuboid","mesh":6},{"translation":[0.375,1,0],"name":"Arm","children":[5,6,7,8]},{"translation":[-0.21875,0.84375,0],"name":"cuboid","mesh":7},{"translation":[-0.21875,0.5625,0],"name":"cuboid","mesh":8},{"translation":[-0.21875,0,0],"name":"cuboid","mesh":9},{"translation":[-0.21875,0.28125,0],"name":"cuboid","mesh":10},{"translation":[-0.4375,1,0],"name":"Arm2","children":[10,11,12,13]},{"translation":[-0.09375,0.671875,0],"name":"cuboid","mesh":11},{"translation":[-0.09375,0.3203125,0],"name":"cuboid","mesh":12},{"translation":[-0.09375,-0.3828125,0],"name":"cuboid","mesh":13},{"translation":[-0.09375,-0.03125,0],"name":"cuboid","mesh":14},{"translation":[-0.1875,0.375,0],"name":"Leg","children":[15,16,17,18]},{"translation":[0.0625,0.671875,0],"name":"cuboid","mesh":15},{"translation":[0.0625,0.3203125,0],"name":"cuboid","mesh":16},{"translation":[0.0625,-0.3828125,0],"name":"cuboid","mesh":17},{"translation":[0.0625,-0.03125,0],"name":"cuboid","mesh":18},{"translation":[0.125,0.375,0],"name":"Leg2","children":[20,21,22,23]},{"translation":[0,0.875,0],"name":"sphere","mesh":19},{"translation":[-0.0625,2.1875,0],"name":"Head","children":[25]},{"children":[2,4,9,14,19,24,26]}],"bufferViews":[{"buffer":0,"byteOffset":0,"byteLength":1008,"target":34962,"byteStride":12},{"buffer":0,"byteOffset":1008,"byteLength":1008,"target":34962,"byteStride":12},{"buffer":0,"byteOffset":2016,"byteLength":672,"target":34962,"byteStride":8},{"buffer":0,"byteOffset":2688,"byteLength":216,"target":34963},{"buffer":0,"byteOffset":2904,"byteLength":1056,"target":34962,"byteStride":12},{"buffer":0,"byteOffset":3960,"byteLength":1056,"target":34962,"byteStride":12},{"buffer":0,"byteOffset":5016,"byteLength":704,"target":34962,"byteStride":8},{"buffer":0,"byteOffset":5720,"byteLength":264,"target":34963},{"buffer":0,"byteOffset":5984,"byteLength":864,"target":34962,"byteStride":12},{"buffer":0,"byteOffset":6848,"byteLength":864,"target":34962,"byteStride":12},{"buffer":0,"byteOffset":7712,"byteLength":576,"target":34962,"byteStride":8},{"buffer":0,"byteOffset":8288,"byteLength":216,"target":34963},{"buffer":0,"byteOffset":8504,"byteLength":864,"target":34962,"byteStride":12},{"buffer":0,"byteOffset":9368,"byteLength":864,"target":34962,"byteStride":12},{"buffer":0,"byteOffset":10232,"byteLength":576,"target":34962,"byteStride":8},{"buffer":0,"byteOffset":10808,"byteLength":216,"target":34963},{"buffer":0,"byteOffset":11024,"byteLength":288,"target":34962,"byteStride":12},{"buffer":0,"byteOffset":11312,"byteLength":288,"target":34962,"byteStride":12},{"buffer":0,"byteOffset":11600,"byteLength":192,"target":34962,"byteStride":8},{"buffer":0,"byteOffset":11792,"byteLength":72,"target":34963},{"buffer":0,"byteOffset":11864,"byteLength":288,"target":34962,"byteStride":12},{"buffer":0,"byteOffset":12152,"byteLength":288,"target":34962,"byteStride":12},{"buffer":0,"byteOffset":12440,"byteLength":192,"target":34962,"byteStride":8},{"buffer":0,"byteOffset":12632,"byteLength":72,"target":34963},{"buffer":0,"byteOffset":12704,"byteLength":288,"target":34962,"byteStride":12},{"buffer":0,"byteOffset":12992,"byteLength":288,"target":34962,"byteStride":12},{"buffer":0,"byteOffset":13280,"byteLength":192,"target":34962,"byteStride":8},{"buffer":0,"byteOffset":13472,"byteLength":72,"target":34963},{"buffer":0,"byteOffset":13544,"byteLength":864,"target":34962,"byteStride":12},{"buffer":0,"byteOffset":14408,"byteLength":864,"target":34962,"byteStride":12},{"buffer":0,"byteOffset":15272,"byteLength":576,"target":34962,"byteStride":8},{"buffer":0,"byteOffset":15848,"byteLength":216,"target":34963},{"buffer":0,"byteOffset":16064,"byteLength":288,"target":34962,"byteStride":12},{"buffer":0,"byteOffset":16352,"byteLength":288,"target":34962,"byteStride":12},{"buffer":0,"byteOffset":16640,"byteLength":192,"target":34962,"byteStride":8},{"buffer":0,"byteOffset":16832,"byteLength":72,"target":34963},{"buffer":0,"byteOffset":16904,"byteLength":288,"target":34962,"byteStride":12},{"buffer":0,"byteOffset":17192,"byteLength":288,"target":34962,"byteStride":12},{"buffer":0,"byteOffset":17480,"byteLength":192,"target":34962,"byteStride":8},{"buffer":0,"byteOffset":17672,"byteLength":72,"target":34963},{"buffer":0,"byteOffset":17744,"byteLength":288,"target":34962,"byteStride":12},{"buffer":0,"byteOffset":18032,"byteLength":288,"target":34962,"byteStride":12},{"buffer":0,"byteOffset":18320,"byteLength":192,"target":34962,"byteStride":8},{"buffer":0,"byteOffset":18512,"byteLength":72,"target":34963},{"buffer":0,"byteOffset":18584,"byteLength":864,"target":34962,"byteStride":12},{"buffer":0,"byteOffset":19448,"byteLength":864,"target":34962,"byteStride":12},{"buffer":0,"byteOffset":20312,"byteLength":576,"target":34962,"byteStride":8},{"buffer":0,"byteOffset":20888,"byteLength":216,"target":34963},{"buffer":0,"byteOffset":21104,"byteLength":288,"target":34962,"byteStride":12},{"buffer":0,"byteOffset":21392,"byteLength":288,"target":34962,"byteStride":12},{"buffer":0,"byteOffset":21680,"byteLength":192,"target":34962,"byteStride":8},{"buffer":0,"byteOffset":21872,"byteLength":72,"target":34963},{"buffer":0,"byteOffset":21944,"byteLength":288,"target":34962,"byteStride":12},{"buffer":0,"byteOffset":22232,"byteLength":288,"target":34962,"byteStride":12},{"buffer":0,"byteOffset":22520,"byteLength":192,"target":34962,"byteStride":8},{"buffer":0,"byteOffset":22712,"byteLength":72,"target":34963},{"buffer":0,"byteOffset":22784,"byteLength":288,"target":34962,"byteStride":12},{"buffer":0,"byteOffset":23072,"byteLength":288,"target":34962,"byteStride":12},{"buffer":0,"byteOffset":23360,"byteLength":192,"target":34962,"byteStride":8},{"buffer":0,"byteOffset":23552,"byteLength":72,"target":34963},{"buffer":0,"byteOffset":23624,"byteLength":864,"target":34962,"byteStride":12},{"buffer":0,"byteOffset":24488,"byteLength":864,"target":34962,"byteStride":12},{"buffer":0,"byteOffset":25352,"byteLength":576,"target":34962,"byteStride":8},{"buffer":0,"byteOffset":25928,"byteLength":216,"target":34963},{"buffer":0,"byteOffset":26144,"byteLength":288,"target":34962,"byteStride":12},{"buffer":0,"byteOffset":26432,"byteLength":288,"target":34962,"byteStride":12},{"buffer":0,"byteOffset":26720,"byteLength":192,"target":34962,"byteStride":8},{"buffer":0,"byteOffset":26912,"byteLength":72,"target":34963},{"buffer":0,"byteOffset":26984,"byteLength":288,"target":34962,"byteStride":12},{"buffer":0,"byteOffset":27272,"byteLength":288,"target":34962,"byteStride":12},{"buffer":0,"byteOffset":27560,"byteLength":192,"target":34962,"byteStride":8},{"buffer":0,"byteOffset":27752,"byteLength":72,"target":34963},{"buffer":0,"byteOffset":27824,"byteLength":288,"target":34962,"byteStride":12},{"buffer":0,"byteOffset":28112,"byteLength":288,"target":34962,"byteStride":12},{"buffer":0,"byteOffset":28400,"byteLength":192,"target":34962,"byteStride":8},{"buffer":0,"byteOffset":28592,"byteLength":72,"target":34963},{"buffer":0,"byteOffset":28664,"byteLength":1344,"target":34962,"byteStride":12},{"buffer":0,"byteOffset":30008,"byteLength":1344,"target":34962,"byteStride":12},{"buffer":0,"byteOffset":31352,"byteLength":896,"target":34962,"byteStride":8},{"buffer":0,"byteOffset":32248,"byteLength":288,"target":34963}],"buffers":[{"byteLength":32536,"uri":"data:application/octet-stream;base64,"}],"accessors":[{"bufferView":0,"componentType":5126,"count":84,"max":[0.824999988079071,0.8999999761581421,0.5625],"min":[-0.824999988079071,0,-0.5625],"type":"VEC3"},{"bufferView":1,"componentType":5126,"count":84,"max":[0.800000011920929,1,1],"min":[-0.800000011920929,-1,-1],"type":"VEC3"},{"bufferView":2,"componentType":5126,"count":84,"max":[0.576171875,0.59375],"min":[0,0],"type":"VEC2"},{"bufferView":3,"componentType":5123,"count":108,"max":[83],"min":[0],"type":"SCALAR"},{"bufferView":4,"componentType":5126,"count":88,"max":[0.32475951313972473,0.1875,0.28125],"min":[-0.32475951313972473,0,-0.28125],"type":"VEC3"},{"bufferView":5,"componentType":5126,"count":88,"max":[0.8660253882408142,1,1],"min":[-0.8660253882408142,-1,-1],"type":"VEC3"},{"bufferView":6,"componentType":5126,"count":88,"max":[0.734375,0.734375],"min":[0,0.0859375],"type":"VEC2"},{"bufferView":7,"componentType":5123,"count":132,"max":[87],"min":[0],"type":"SCALAR"},{"bufferView":8,"componentType":5126,"count":72,"max":[0.375,0.09375,0.5625],"min":[-0.375,-0.28125,-0.5625],"type":"VEC3"},{"bufferView":9,"componentType":5126,"count":72,"max":[1,1,1],"min":[-1,-1,-1],"type":"VEC3"},{"bufferView":10,"componentType":5126,"count":72,"max":[0.703125,0.625],"min":[0,0.0546875],"type":"VEC2"},{"bufferView":11,"componentType":5123,"count":108,"max":[71],"min":[0],"type":"SCALAR"},{"bufferView":12,"componentType":5126,"count":72,"max":[0.140625,0.46875,0.140625],"min":[-0.140625,0,-0.140625],"type":"VEC3"},{"bufferView":13,"componentType":5126,"count":72,"max":[1,1,1],"min":[-1,-1,-1],"type":"VEC3"},{"bufferView":14,"componentType":5126,"count":72,"max":[0.755859375,0.75],"min":[0.0703125,0],"type":"VEC2"},{"bufferView":15,"componentType":5123,"count":108,"max":[71],"min":[0],"type":"SCALAR"},{"bufferView":16,"componentType":5126,"count":24,"max":[0.140625,0.28125,0.140625],"min":[-0.140625,0,-0.140625],"type":"VEC3"},{"bufferView":17,"componentType":5126,"count":24,"max":[1,1,1],"min":[-1,-1,-1],"type":"VEC3"},{"bufferView":18,"componentType":5126,"count":24,"max":[0.625,0.6171875],"min":[0.046875,0],"type":"VEC2"},{"bufferView":19,"componentType":5123,"count":36,"max":[23],"min":[0],"type":"SCALAR"},{"bufferView":20,"componentType":5126,"count":24,"max":[0.09375,0.28125,0.09375],"min":[-0.09375,0,-0.09375],"type":"VEC3"},{"bufferView":21,"componentType":5126,"count":24,"max":[1,1,1],"min":[-1,-1,-1],"type":"VEC3"},{"bufferView":22,"componentType":5126,"count":24,"max":[0.421875,0.484375],"min":[0,0],"type":"VEC2"},{"bufferView":23,"componentType":5123,"count":36,"max":[23],"min":[0],"type":"SCALAR"},{"bufferView":24,"componentType":5126,"count":24,"max":[0.140625,0.28125,0.140625],"min":[-0.140625,0,-0.140625],"type":"VEC3"},{"bufferView":25,"componentType":5126,"count":24,"max":[0.9486833214759827,1,0.9486833214759827],"min":[-0.9486833214759827,-1,-0.9486833214759827],"type":"VEC3"},{"bufferView":26,"componentType":5126,"count":24,"max":[0.685546875,0.6796875],"min":[0,0.1796875],"type":"VEC2"},{"bufferView":27,"componentType":5123,"count":36,"max":[23],"min":[0],"type":"SCALAR"},{"bufferView":28,"componentType":5126,"count":72,"max":[0.140625,0.46875,0.140625],"min":[-0.140625,0,-0.140625],"type":"VEC3"},{"bufferView":29,"componentType":5126,"count":72,"max":[1,1,1],"min":[-1,-1,-1],"type":"VEC3"},{"bufferView":30,"componentType":5126,"count":72,"max":[0.755859375,0.75],"min":[0.09375,0.1875],"type":"VEC2"},{"bufferView":31,"componentType":5123,"count":108,"max":[71],"min":[0],"type":"SCALAR"},{"bufferView":32,"componentType":5126,"count":24,"max":[0.140625,0.28125,0.140625],"min":[-0.140625,0,-0.140625],"type":"VEC3"},{"bufferView":33,"componentType":5126,"count":24,"max":[1,1,1],"min":[-1,-1,-1],"type":"VEC3"},{"bufferView":34,"componentType":5126,"count":24,"max":[0.625,0.6328125],"min":[0,0.515625],"type":"VEC2"},{"bufferView":35,"componentType":5123,"count":36,"max":[23],"min":[0],"type":"SCALAR"},{"bufferView":36,"componentType":5126,"count":24,"max":[0.140625,0.28125,0.140625],"min":[-0.140625,0,-0.140625],"type":"VEC3"},{"bufferView":37,"componentType":5126,"count":24,"max":[0.9486833214759827,1,0.9486833214759827],"min":[-0.9486833214759827,-1,-0.9486833214759827],"type":"VEC3"},{"bufferView":38,"componentType":5126,"count":24,"max":[0.701171875,0.6875],"min":[0.3203125,0],"type":"VEC2"},{"bufferView":39,"componentType":5123,"count":36,"max":[23],"min":[0],"type":"SCALAR"},{"bufferView":40,"componentType":5126,"count":24,"max":[0.09375,0.28125,0.09375],"min":[-0.09375,0,-0.09375],"type":"VEC3"},{"bufferView":41,"componentType":5126,"count":24,"max":[1,1,1],"min":[-1,-1,-1],"type":"VEC3"},{"bufferView":42,"componentType":5126,"count":24,"max":[0.71875,0.734375],"min":[0,0.125],"type":"VEC2"},{"bufferView":43,"componentType":5123,"count":36,"max":[23],"min":[0],"type":"SCALAR"},{"bufferView":44,"componentType":5126,"count":72,"max":[0.17578125,0.5859375,0.17578125],"min":[-0.17578125,0,-0.17578125],"type":"VEC3"},{"bufferView":45,"componentType":5126,"count":72,"max":[1,1,1],"min":[-1,-1,-1],"type":"VEC3"},{"bufferView":46,"componentType":5126,"count":72,"max":[0.75,0.703125],"min":[0.04052734375,0.03125],"type":"VEC2"},{"bufferView":47,"componentType":5123,"count":108,"max":[71],"min":[0],"type":"SCALAR"},{"bufferView":48,"componentType":5126,"count":24,"max":[0.17578125,0.3515625,0.17578125],"min":[-0.17578125,0,-0.17578125],"type":"VEC3"},{"bufferView":49,"componentType":5126,"count":24,"max":[1,1,1],"min":[-1,-1,-1],"type":"VEC3"},{"bufferView":50,"componentType":5126,"count":24,"max":[0.546875,0.5546875],"min":[0.140625,0.0703125],"type":"VEC2"},{"bufferView":51,"componentType":5123,"count":36,"max":[23],"min":[0],"type":"SCALAR"},{"bufferView":52,"componentType":5126,"count":24,"max":[0.17578125,0.3515625,0.45703125],"min":[-0.17578125,0,-0.17578125],"type":"VEC3"},{"bufferView":53,"componentType":5126,"count":24,"max":[0.9486833214759827,1,0.9486833214759827],"min":[-0.9486833214759827,-1,-0.9486833214759827],"type":"VEC3"},{"bufferView":54,"componentType":5126,"count":24,"max":[0.57666015625,0.6015625],"min":[0.33154296875,0.0859375],"type":"VEC2"},{"bufferView":55,"componentType":5123,"count":36,"max":[23],"min":[0],"type":"SCALAR"},{"bufferView":56,"componentType":5126,"count":24,"max":[0.1171875,0.3515625,0.1171875],"min":[-0.1171875,0,-0.1171875],"type":"VEC3"},{"bufferView":57,"componentType":5126,"count":24,"max":[1,1,1],"min":[-1,-1,-1],"type":"VEC3"},{"bufferView":58,"componentType":5126,"count":24,"max":[0.7109375,0.7109375],"min":[0.046875,0.1328125],"type":"VEC2"},{"bufferView":59,"componentType":5123,"count":36,"max":[23],"min":[0],"type":"SCALAR"},{"bufferView":60,"componentType":5126,"count":72,"max":[0.17578125,0.5859375,0.17578125],"min":[-0.17578125,0,-0.17578125],"type":"VEC3"},{"bufferView":61,"componentType":5126,"count":72,"max":[1,1,1],"min":[-1,-1,-1],"type":"VEC3"},{"bufferView":62,"componentType":5126,"count":72,"max":[0.7578125,0.734375],"min":[0.1875,0],"type":"VEC2"},{"bufferView":63,"componentType":5123,"count":108,"max":[71],"min":[0],"type":"SCALAR"},{"bufferView":64,"componentType":5126,"count":24,"max":[0.17578125,0.3515625,0.17578125],"min":[-0.17578125,0,-0.17578125],"type":"VEC3"},{"bufferView":65,"componentType":5126,"count":24,"max":[1,1,1],"min":[-1,-1,-1],"type":"VEC3"},{"bufferView":66,"componentType":5126,"count":24,"max":[0.578125,0.5703125],"min":[0.078125,0],"type":"VEC2"},{"bufferView":67,"componentType":5123,"count":36,"max":[23],"min":[0],"type":"SCALAR"},{"bufferView":68,"componentType":5126,"count":24,"max":[0.17578125,0.3515625,0.45703125],"min":[-0.17578125,0,-0.17578125],"type":"VEC3"},{"bufferView":69,"componentType":5126,"count":24,"max":[0.9486833214759827,1,0.9486833214759827],"min":[-0.9486833214759827,-1,-0.9486833214759827],"type":"VEC3"},{"bufferView":70,"componentType":5126,"count":24,"max":[0.46533203125,0.75],"min":[0.00146484375,0.140625],"type":"VEC2"},{"bufferView":71,"componentType":5123,"count":36,"max":[23],"min":[0],"type":"SCALAR"},{"bufferView":72,"componentType":5126,"count":24,"max":[0.1171875,0.3515625,0.1171875],"min":[-0.1171875,0,-0.1171875],"type":"VEC3"},{"bufferView":73,"componentType":5126,"count":24,"max":[1,1,1],"min":[-1,-1,-1],"type":"VEC3"},{"bufferView":74,"componentType":5126,"count":24,"max":[0.7109375,0.7109375],"min":[0.4453125,0],"type":"VEC2"},{"bufferView":75,"componentType":5123,"count":36,"max":[23],"min":[0],"type":"SCALAR"},{"bufferView":76,"componentType":5126,"count":112,"max":[0.375,0.375,0.375],"min":[-0.375,-0.65625,-0.375],"type":"VEC3"},{"bufferView":77,"componentType":5126,"count":112,"max":[0.8628562092781067,0.9124869704246521,0.8628562092781067],"min":[-0.8628562092781067,-0.5308595299720764,-0.8628562092781067],"type":"VEC3"},{"bufferView":78,"componentType":5126,"count":112,"max":[0.671875,0.6796875],"min":[0,0.0005757808685302734],"type":"VEC2"},{"bufferView":79,"componentType":5123,"count":144,"max":[111],"min":[0],"type":"SCALAR"}],"materials":[{"pbrMetallicRoughness":{"metallicFactor":0,"roughnessFactor":1,"baseColorTexture":{"index":0}},"alphaMode":"MASK","alphaCutoff":0.05,"doubleSided":true}],"textures":[{"sampler":0,"source":0,"name":"texture"}],"samplers":[{"magFilter":9728,"minFilter":9728,"wrapS":33071,"wrapT":33071}],"images":[{"mimeType":"image/png","uri":"data:image/png;base64,"}],"meshes":[{"primitives":[{"mode":4,"attributes":{"POSITION":0,"NORMAL":1,"TEXCOORD_0":2},"indices":3,"material":0}]},{"primitives":[{"mode":4,"attributes":{"POSITION":4,"NORMAL":5,"TEXCOORD_0":6},"indices":7,"material":0}]},{"primitives":[{"mode":4,"attributes":{"POSITION":8,"NORMAL":9,"TEXCOORD_0":10},"indices":11,"material":0}]},{"primitives":[{"mode":4,"attributes":{"POSITION":12,"NORMAL":13,"TEXCOORD_0":14},"indices":15,"material":0}]},{"primitives":[{"mode":4,"attributes":{"POSITION":16,"NORMAL":17,"TEXCOORD_0":18},"indices":19,"material":0}]},{"primitives":[{"mode":4,"attributes":{"POSITION":20,"NORMAL":21,"TEXCOORD_0":22},"indices":23,"material":0}]},{"primitives":[{"mode":4,"attributes":{"POSITION":24,"NORMAL":25,"TEXCOORD_0":26},"indices":27,"material":0}]},{"primitives":[{"mode":4,"attributes":{"POSITION":28,"NORMAL":29,"TEXCOORD_0":30},"indices":31,"material":0}]},{"primitives":[{"mode":4,"attributes":{"POSITION":32,"NORMAL":33,"TEXCOORD_0":34},"indices":35,"material":0}]},{"primitives":[{"mode":4,"attributes":{"POSITION":36,"NORMAL":37,"TEXCOORD_0":38},"indices":39,"material":0}]},{"primitives":[{"mode":4,"attributes":{"POSITION":40,"NORMAL":41,"TEXCOORD_0":42},"indices":43,"material":0}]},{"primitives":[{"mode":4,"attributes":{"POSITION":44,"NORMAL":45,"TEXCOORD_0":46},"indices":47,"material":0}]},{"primitives":[{"mode":4,"attributes":{"POSITION":48,"NORMAL":49,"TEXCOORD_0":50},"indices":51,"material":0}]},{"primitives":[{"mode":4,"attributes":{"POSITION":52,"NORMAL":53,"TEXCOORD_0":54},"indices":55,"material":0}]},{"primitives":[{"mode":4,"attributes":{"POSITION":56,"NORMAL":57,"TEXCOORD_0":58},"indices":59,"material":0}]},{"primitives":[{"mode":4,"attributes":{"POSITION":60,"NORMAL":61,"TEXCOORD_0":62},"indices":63,"material":0}]},{"primitives":[{"mode":4,"attributes":{"POSITION":64,"NORMAL":65,"TEXCOORD_0":66},"indices":67,"material":0}]},{"primitives":[{"mode":4,"attributes":{"POSITION":68,"NORMAL":69,"TEXCOORD_0":70},"indices":71,"material":0}]},{"primitives":[{"mode":4,"attributes":{"POSITION":72,"NORMAL":73,"TEXCOORD_0":74},"indices":75,"material":0}]},{"primitives":[{"mode":4,"attributes":{"POSITION":76,"NORMAL":77,"TEXCOORD_0":78},"indices":79,"material":0}]}]}